<?xml version="1.0" encoding="UTF-8"?>
<svg id="Layer_5" data-name="Layer 5" xmlns="http://www.w3.org/2000/svg" viewBox="0 0 289.85 188.11">
  <defs>
    <style>
      .cls-1 {
        fill: #5daadd;
      }

      .cls-2 {
        fill: #d64545;
      }
    </style>
  </defs>
  <polygon class="cls-2" points="144.16 176.37 150.31 159.49 6.11 159.49 0 176.37 144.16 176.37"/>
  <g>
    <path class="cls-1" d="M79.42,149.27c-22.65,8.24-47.68-3.43-55.92-26.07-8.25-22.64,3.43-47.68,26.07-55.92,4.92-1.79,9.97-2.64,14.92-2.64s9.04,4.06,9.04,9.06-3.79,8.8-8.58,9.03c-.28,0-.57,0-.85.01-2.78.03-5.6.54-8.34,1.54-13.25,4.82-20.09,19.47-15.27,32.73,4.82,13.25,19.47,20.09,32.73,15.27,13.25-4.83,20.09-19.47,15.25-32.73l-12.09-33.23-1.87-5.12h19.27l11.7,32.16c8.24,22.64-3.43,47.68-26.07,55.92Z"/>
    <path class="cls-1" d="M134.7,28.31c0,3.6-.67,7.04-1.91,10.22-4.09,10.6-14.36,18.1-26.4,18.1H29.94c-5,0-9.06-4.06-9.06-9.06s4.06-9.04,9.06-9.04h75.99c5.3,0,9.61-4.3,9.61-9.61s-4.31-9.6-9.61-9.6c-13.95,0-18.36,9.01-19.73,14.7h-19.71C69.47.03,106.27,0,106.39,0c15.64,0,28.31,12.67,28.31,28.31Z"/>
  </g>
  <path class="cls-1" d="M286.84,56l-61.69,60.8,20.36,58.13c1.85,5.3-.96,11.11-6.21,12.96-1.09.38-2.23.56-3.36.56-4.32,0-8.17-2.72-9.6-6.79l-22.65-64.81-24.56,64.92c-1.47,3.92-5.3,6.57-9.51,6.57-1.2,0-2.41-.22-3.56-.67-2.54-.96-4.54-2.85-5.66-5.32s-1.2-5.21-.24-7.75l30.4-79.8c1.09-2.92,1.67-6.04,1.69-9.26.2-15.3-12.09-27.91-27.39-28.08h-.36c-15.12,0-27.57,12.29-27.75,27.42-.16,12,7.37,22.69,18.73,26.59l.11.02.07.02.16.07.16.04c5.14,1.69,8,7.08,6.48,12.29-1.25,4.3-5.23,7.3-9.67,7.3-.91,0-1.85-.13-2.69-.38-20.07-6.26-33.9-25.32-33.63-46.37.31-26.1,21.8-47.33,47.9-47.33h.6c7.02.09,13.76,1.65,20.04,4.65,6.01,2.87,11.29,6.93,15.7,12.05l.11.13.09.11c1.65,1.92,3.14,4.01,4.45,6.19l.09.18.04.04c.04.07.07.11.11.18,5.7,9.51,7.86,20.98,6.08,32.29-.49,3.05-1.31,6.15-2.47,9.2l-.65,1.74,64.05-62.34c1.91-1.89,4.43-2.94,7.1-2.94s5.3,1.09,7.22,3.03c3.92,3.99,3.9,10.42-.09,14.34Z"/>
</svg>