<?xml version="1.0" encoding="UTF-8"?>
<svg id="Layer_5" data-name="Layer 5" xmlns="http://www.w3.org/2000/svg" viewBox="0 0 495.21 206.84">
  <defs>
    <style>
      .cls-1 {
        fill: #5daadd;
      }

      .cls-2 {
        fill: #d64545;
      }
    </style>
  </defs>
  <g id="Sloppy">
    <path class="cls-1" d="M99.07,9.73l-19.71,54.43h5.2c.73,0,1.48.12,2.2.38,3.34,1.22,5.06,4.91,3.85,8.25-.99,2.7-3.59,4.35-6.32,4.23h-13.86c-.81.04-1.64-.08-2.45-.38-3.34-1.21-5.06-4.91-3.85-8.25L86.98,5.32c1.21-3.34,4.91-5.06,8.25-3.84,3.34,1.21,5.06,4.91,3.84,8.25Z"/>
    <path class="cls-1" d="M176.77,60.65c-3.44,9.44-11.25,15.57-18.69,15.3h-9.96l4.54-12.46h5.55c2.93,0,5.97-2.43,7.32-6.15,1.63-4.47.2-9.08-3.18-10.31s-7.44,1.39-9.06,5.85l-21.7,59.62c-1.22,3.34-4.91,5.06-8.25,3.84-3.34-1.21-5.06-4.91-3.85-8.25l25.23-69.29c1.21-3.34,4.91-5.07,8.25-3.85,1.19.43,2.17,1.18,2.88,2.11,4.1-2.7,8.77-3.59,13.01-2.05,8.41,3.06,11.95,14.54,7.91,25.64Z"/>
    <path class="cls-1" d="M220.41,60.65c-3.44,9.44-11.25,15.57-18.69,15.3h-9.95l4.53-12.46h5.55c2.93,0,5.97-2.43,7.32-6.15,1.63-4.47.2-9.08-3.18-10.31s-7.44,1.39-9.06,5.85l-21.7,59.62c-1.22,3.34-4.91,5.06-8.25,3.84-3.34-1.21-5.06-4.91-3.85-8.25l25.23-69.29c1.21-3.34,4.91-5.07,8.25-3.85,1.19.43,2.17,1.18,2.88,2.11,4.1-2.7,8.77-3.59,13.01-2.05,8.41,3.06,11.95,14.54,7.91,25.64Z"/>
    <path class="cls-1" d="M115.92,34.58c-11.62-2.05-22.72,5.72-24.77,17.34-2.05,11.63,5.71,22.73,17.35,24.78,11.63,2.05,22.72-5.72,24.77-17.35,2.04-11.63-5.72-22.72-17.35-24.77ZM112.21,64.24c-4.75,0-8.6-3.85-8.6-8.6s3.85-8.6,8.6-8.6,8.6,3.85,8.6,8.6-3.85,8.6-8.6,8.6Z"/>
    <g>
      <path class="cls-1" d="M39.24,101.14c-15.18,5.52-31.95-2.3-37.47-17.47-5.53-15.17,2.3-31.95,17.47-37.47,3.3-1.2,6.68-1.77,10-1.77s6.06,2.72,6.06,6.07-2.54,5.9-5.75,6.05c-.19,0-.38,0-.57.01-1.86.02-3.75.36-5.59,1.03-8.88,3.23-13.46,13.05-10.23,21.93s13.05,13.46,21.93,10.23c8.88-3.24,13.46-13.05,10.22-21.93l-8.1-22.27-1.25-3.43h12.91l7.84,21.55c5.52,15.17-2.3,31.95-17.47,37.47Z"/>
      <path class="cls-1" d="M76.28,20.08c0,2.41-.45,4.72-1.28,6.85-2.74,7.1-9.62,12.13-17.69,12.13H6.08C2.73,39.06.01,36.34.01,32.99s2.72-6.06,6.07-6.06h50.92c3.55,0,6.44-2.88,6.44-6.44s-2.89-6.43-6.44-6.43c-9.35,0-12.3,6.04-13.22,9.85h-13.21C32.57,1.13,57.23,1.11,57.31,1.11c10.48,0,18.97,8.49,18.97,18.97Z"/>
    </g>
    <path class="cls-1" d="M272.13,42.89l-23.72,65.5c-4.05,11.13-16.36,16.87-27.49,12.81-11.45-4.17-17.19-17.06-12.45-28.43,1.68-4.03,4.52-7.32,7.99-9.6,4.59-3.01,10.23-3.23,15.65-3.23h9.73l-4.56,12.52h-9.02c-3.52-.01-6.81,2.16-8.09,5.65-1.62,4.46.68,9.4,5.14,11.03,4.22,1.53,8.84-.43,10.72-4.41l.02-.05,10.46-28.73h-13c-1.24-.03-2.43-.34-3.56-.85-5.3-2.38-7.65-8.94-5.67-14.4l8.36-22.21c.17-.46.38-.89.64-1.28,1.58-2.48,4.73-3.62,7.61-2.57.25.09.49.2.72.32,2.42,1.22,3.78,3.84,3.46,6.48-.05.49-.16.97-.34,1.45l-4.75,12.3c-1.56,4.28,1.66,7.98,5.32,8.35.38.04.78.04,1.17,0h4.39l3.91-11.17,5.27-13.88c1.21-3.34,4.91-5.07,8.25-3.85,3.34,1.21,5.06,4.91,3.84,8.25Z"/>
  </g>
  <polygon class="cls-1" points="264.96 24.78 262.82 30.65 101.77 30.65 103.91 24.78 264.96 24.78"/>
  <g id="Ko.">
    <path class="cls-1" d="M367.24,33.51c-11.62-2.05-22.72,5.72-24.77,17.34-2.05,11.63,5.71,22.73,17.35,24.78,11.63,2.05,22.72-5.72,24.77-17.35,2.04-11.63-5.72-22.72-17.35-24.77ZM363.53,63.17c-4.75,0-8.6-3.85-8.6-8.6s3.85-8.6,8.6-8.6,8.6,3.85,8.6,8.6-3.85,8.6-8.6,8.6Z"/>
    <circle class="cls-1" cx="390.67" cy="69.46" r="6.49"/>
    <path class="cls-1" d="M360.38,11.05l-28.61,28.9,9.8,26.9c1.22,3.37-.51,7.1-3.88,8.33-3.37,1.22-7.1-.51-8.33-3.88l-11.7-32.18-11.85,32.56c-1.23,3.37-4.96,5.1-8.32,3.88-3.37-1.23-5.11-4.95-3.88-8.32l14.15-38.57c.44-1.22.67-2.54.67-3.92,0-6.49-5.26-11.75-11.75-11.75s-11.75,5.26-11.75,11.75c0,5.21,3.38,9.62,8.07,11.16.07.02.14.04.21.07,3.29,1.03,5.19,4.49,4.26,7.84-.95,3.41-4.49,5.46-7.91,4.51h0c-10.18-3.03-17.61-12.47-17.61-23.65C271.95,11.05,283,0,296.62,0c3.69,0,7.19.81,10.34,2.27,3.14,1.45,5.92,3.55,8.18,6.12.02.02.03.04.05.06.88,1,1.67,2.07,2.37,3.21.04.05.07.11.11.17,3.05,4.94,4.18,10.87,3.35,16.6-.23,1.59-.64,3.19-1.21,4.76l31.35-31.27c2.52-2.55,6.62-2.57,9.17-.05,2.54,2.52,2.57,6.63.05,9.17Z"/>
  </g>
  <g>
    <polygon class="cls-2" points="473.69 193.34 471.55 199.21 340.22 199.21 342.36 193.34 473.69 193.34"/>
    <g id="Studio">
      <path class="cls-2" d="M467.39,162.15c-7.6-1.34-14.86,3.74-16.2,11.34-1.34,7.61,3.73,14.87,11.35,16.21,7.61,1.34,14.86-3.74,16.2-11.35,1.33-7.61-3.74-14.86-11.35-16.2ZM464.96,181.55c-3.11,0-5.62-2.52-5.62-5.62s2.52-5.62,5.62-5.62,5.62,2.52,5.62,5.62-2.52,5.62-5.62,5.62Z"/>
      <g>
        <path class="cls-2" d="M325.71,205.68c-9.93,3.62-20.88-1.51-24.5-11.42-3.62-9.93,1.51-20.9,11.43-24.5,2.15-.78,4.36-1.17,6.53-1.17s3.96,1.78,3.96,3.97-1.65,3.86-3.75,3.96c-.13,0-.26,0-.38.02-1.22,0-2.45.22-3.65.67-5.81,2.11-8.81,8.54-6.69,14.33,2.11,5.81,8.54,8.81,14.35,6.69,5.81-2.11,8.81-8.54,6.68-14.35l-5.3-14.56-.94-2.61h8.44l5.27,14.46c3.6,9.93-1.51,20.9-11.43,24.5Z"/>
        <path class="cls-2" d="M349.94,152.67c0,1.57-.29,3.09-.83,4.48-1.79,4.63-6.29,7.93-11.58,7.93h-33.5c-2.19,0-3.97-1.78-3.97-3.97s1.78-3.96,3.97-3.96h33.31c2.32,0,4.21-1.89,4.21-4.21s-1.89-4.21-4.21-4.21c-6.45,0-8.25,4.39-8.74,6.82h-8.58c1.07-15.28,17.47-15.29,17.52-15.29,6.85,0,12.41,5.56,12.41,12.41Z"/>
      </g>
      <path class="cls-2" d="M418.95,176.18c.35-1.47.26-3.14-.58-4.44-.75-1.2-2.13-1.86-3.56-1.67-3.3.46-5.2,5.32-4.6,8.25.35,1.76,1.79,3.14,3.65,3.12l14.22-.02c2.13.22,3.8,2.03,3.8,4.23,0,2.34-1.89,4.23-4.23,4.23l-16.43-.02c-1.15.08-2.29-.08-3.39-.48-5.64-2.03-7.99-9.74-5.28-17.17,2.26-6.2,7.32-10.26,12.2-10.26.96,0,1.94.16,2.87.51,2.08.75,3.72,2.29,4.82,4.29l3.11-8.49,5.56-15.25c.8-2.19,3.25-3.33,5.44-2.53,2.21.8,3.33,3.23,2.55,5.44l-12.41,33.89h-9.02l1.28-3.65Z"/>
      <path class="cls-2" d="M369.65,166.19c0,2.34-1.9,4.24-4.24,4.24h-5.64l-4,10.99h3.26c2.35,0,4.24,1.9,4.24,4.24s-1.9,4.24-4.24,4.24h-9.33c-.48,0-.97-.08-1.45-.26-2.2-.8-3.34-3.24-2.54-5.44l5.02-13.78h-1.03c-2.34,0-4.24-1.9-4.24-4.24s1.9-4.24,4.24-4.24h4.11l2.07-5.69c.8-2.2,3.24-3.34,5.44-2.54,2.2.8,3.34,3.24,2.54,5.44l-1.01,2.79h2.56c2.34,0,4.24,1.9,4.24,4.24Z"/>
      <g>
        <path class="cls-2" d="M451.56,185.66c0,2.34-1.9,4.24-4.24,4.24h-9.33c-.48,0-.97-.08-1.45-.26-2.2-.8-3.34-3.24-2.54-5.44l7.1-19.5c.8-2.2,3.24-3.34,5.44-2.54,2.2.8,3.34,3.24,2.54,5.44l-5.02,13.8h3.27c2.34,0,4.24,1.9,4.24,4.24Z"/>
        <circle class="cls-2" cx="448.12" cy="155.91" r="4.25"/>
      </g>
      <path class="cls-2" d="M400.15,185.31c0,2.15-1.75,3.89-3.89,3.89h-23.03c-.8-.02-1.59-.22-2.32-.56-3.46-1.55-5-5.85-3.72-9.42l5.48-14.52c.11-.29.24-.58.42-.83,1.04-1.62,3.09-2.37,4.98-1.68.16.06.32.13.46.21,1.59.8,2.48,2.51,2.27,4.24-.05.32-.11.62-.22.94l-3.11,8.04c-1.17,3.35.98,5.8,3.41,5.85h3.35l6.36-16.77c.78-2.18,3.2-3.31,5.4-2.51,2.18.78,3.3,3.22,2.51,5.4l-5.14,13.84h2.9c2.15,0,3.89,1.75,3.89,3.89Z"/>
    </g>
    <path class="cls-2" d="M422.64,114.36c0,2.38-1.93,4.32-4.32,4.32h-5.75l-4.08,11.19h3.32c2.39,0,4.32,1.94,4.32,4.32s-1.93,4.32-4.32,4.32h-9.5c-.49,0-.99-.08-1.48-.26-2.24-.81-3.4-3.3-2.58-5.54l5.11-14.03h-1.05c-2.38,0-4.32-1.94-4.32-4.32s1.93-4.32,4.32-4.32h4.19l2.11-5.8c.81-2.24,3.3-3.4,5.54-2.58,2.24.81,3.4,3.3,2.58,5.54l-1.03,2.84h2.6c2.38,0,4.32,1.94,4.32,4.32Z"/>
    <g>
      <path class="cls-2" d="M436.55,134.2c0,2.38-1.94,4.32-4.32,4.32h-9.51c-.49,0-.99-.08-1.48-.26-2.24-.81-3.4-3.3-2.58-5.54l7.23-19.86c.82-2.24,3.3-3.4,5.54-2.58,2.24.82,3.4,3.3,2.58,5.54l-5.12,14.05h3.33c2.38,0,4.32,1.94,4.32,4.32Z"/>
      <circle class="cls-2" cx="433.04" cy="103.89" r="4.32"/>
    </g>
    <path class="cls-2" d="M465.74,117.91c1.69-1.69,1.69-4.42,0-6.11-1.69-1.69-4.43-1.69-6.11,0l-9.72,9.68,1.12-6.36c.41-2.35-1.16-4.6-3.51-5.01s-4.6,1.15-5.01,3.51l-3.5,19.84c-.41,2.35,1.15,4.59,3.51,5.01,1.45.25,2.84-.24,3.8-1.21l19.42-19.35Z"/>
    <path class="cls-2" d="M328.16,138.52c2.38,0,4.32-1.93,4.32-4.32,0-1.07-.39-2.05-1.04-2.8-.79-.93-1.96-1.51-3.28-1.51h-2.7c-.51-.01-1.03-.14-1.53-.33-2.96-1.07-4.21-5.13-2.78-9.05.24-.66.54-1.27.89-1.83h6.11c1.29,0,2.44-.57,3.24-1.47.59-.67.97-1.52,1.06-2.46.01-.13.02-.27.02-.4,0-2.38-1.93-4.32-4.32-4.32h-14.85c0-1.77-1.09-3.42-2.84-4.06-2.24-.81-4.72.34-5.54,2.58l-4.27,11.74c-.82,2.24.34,4.73,2.58,5.54,2.24.82,4.72-.34,5.54-2.58l1.67-4.58h2.65c-.29.59-.55,1.2-.78,1.83-2.76,7.57-.35,15.4,5.38,17.48.95.35,1.94.53,2.93.53h7.54Z"/>
    <path class="cls-2" d="M361.72,134.21c0,2.38-1.94,4.32-4.32,4.32l-14.39-.02c-1.01,0-2.02-.16-2.98-.52-5.72-2.07-8.12-9.9-5.37-17.47,2.3-6.33,7.45-10.47,12.41-10.47h4.65c4.76,0,8.64,3.87,8.64,8.64,0,3.25-1.78,6.07-4.42,7.55-1.26.7-2.69,1.09-4.22,1.09h-6.43c-.73-.65-1.21-1.84-1.21-3.9,0-.8.24-1.76.72-2.61h4.76c1.17,0,2.15-.96,2.15-2.14s-.98-2.14-2.15-2.14c-2.74,0-4.21.93-4.99,1.92,0,0-.02-.02-.02.02-1.39,1.3-2.1,3.31-2.1,4.94,0,4.16,1.81,6.31,5.38,6.36.05.02.11.02.18.02.39.03.8.05,1.26.05h8.12c2.38,0,4.32,1.94,4.32,4.34Z"/>
    <path class="cls-2" d="M395.59,134.19c0,2.38-1.92,4.31-4.31,4.31l-18.54-.02c-1.17.08-2.35-.08-3.47-.49-5.72-2.07-8.14-9.92-5.38-17.48,2.3-6.31,7.45-10.45,12.43-10.45,1,0,1.97.16,2.94.52,2.12.77,3.78,2.33,4.89,4.37l.82-2.22c.88-2.12,3.28-3.21,5.46-2.41,2.23.82,3.39,3.29,2.58,5.53l-4.5,12.38h-9.2l1.19-3.25c.42-1.6.36-3.36-.47-4.78-.47-.83-1.21-1.47-2.12-1.73-1.47-.42-2.98.26-4.06,1.27-1.68,1.61-2.54,4.19-2.15,6.52.18.98.59,1.94,1.3,2.64.65.62,1.52.98,2.41.96h15.89c2.38,0,4.31,1.94,4.31,4.32Z"/>
    <g>
      <path class="cls-2" d="M306.01,143c-1.33.76-2.88.6-4.35.6h-17.07c-3.9.03-7.87-.74-11.41-2.52-3.02-1.5-5.66-3.71-7.7-6.4-1.92-2.54-3.26-5.47-4.06-8.56-.83-3.21-1.04-6.58-.78-9.89.14-1.78.43-3.54.83-5.26.21-.88.45-1.76.72-2.62.09-.26.16-.5.26-.76h8.98c-.93,2.4-1.52,4.94-1.69,7.49-.35,4.87.86,9.93,4.07,13.69,3.26,3.83,8.16,5.76,13.12,5.71h16.78c2.11-.03,4.04,1.55,4.47,3.62.41,1.92-.48,3.92-2.17,4.9Z"/>
      <path class="cls-2" d="M308.79,101.59c-2.5,2.71-6.11,4.28-9.8,4.28l-39.98-.02c-2.35,0-4.26-1.9-4.26-4.25s1.92-4.25,4.26-4.25l39.63.03c2.52,0,4.57-2.04,4.57-4.57,0-2.02-1.33-3.75-3.14-4.35-.91-.29-1.88-.22-2.81-.22-5.95-.05-12.43,2.52-17.74,7.42h-10.82c.07-.07.12-.16.17-.22.5-.67,1.04-1.31,1.57-1.95,1-1.21,2.07-2.35,3.19-3.42,5.95-5.71,13.67-9.91,21.96-10.81,1.38-.14,2.8-.22,4.19-.14,2.49.16,4.92.98,6.96,2.43,2.88,2.05,4.89,5.23,5.45,8.73.67,4.06-.6,8.27-3.4,11.29Z"/>
    </g>
    <path class="cls-2" d="M495.21,134.21c0,2.38-1.94,4.32-4.32,4.32l-14.4-.02c-1.01,0-2.01-.16-2.97-.52-5.72-2.07-8.12-9.9-5.37-17.47,2.3-6.33,7.45-10.47,12.41-10.47h4.63c4.78,0,8.64,3.87,8.64,8.64,0,3.25-1.78,6.07-4.42,7.55-1.24.7-2.67,1.09-4.22,1.09h-6.41c-.83-.75-1.21-2.02-1.21-3.9,0-.8.24-1.76.72-2.61h4.76c1.17,0,2.14-.96,2.14-2.14s-.96-2.14-2.14-2.14c-2.67,0-4.13.86-4.91,1.83-.03.02-.07.05-.1.11-1.39,1.29-2.1,3.31-2.1,4.94,0,5.27,3.02,6.38,5.56,6.38.38.03.8.05,1.24.05h8.14c2.38,0,4.32,1.94,4.32,4.34Z"/>
  </g>
</svg>