<?xml version="1.0" encoding="UTF-8"?>
<svg id="Layer_5" data-name="Layer 5" xmlns="http://www.w3.org/2000/svg" viewBox="0 0 660.89 237.59">
  <defs>
    <style>
      .cls-1 {
        fill: #5daadd;
      }

      .cls-2 {
        fill: #d64545;
      }

      .cls-3 {
        fill: #231f20;
      }
    </style>
  </defs>
  <g>
    <g id="face">
      <g>
        <path class="cls-3" d="M53.82,106.63c.16-.09.32-.18.48-.26.44-.21.31-.88-.18-.88,0,0-.01,0-.02,0-5.99,0-8.37,8.14-3.28,11.35,0,1.61,1.31,2.92,2.92,2.92h1.36c1.5,0,2.82-.77,3.58-1.94.44-.67.69-1.47.69-2.33,0-.2-.02-.41-.04-.6-.29-2.08-2.08-3.67-4.23-3.67-2.5,0-3.42-3.3-1.28-4.58Z"/>
        <path class="cls-3" d="M81.77,121.72c-2.75,3.1-6.2,4.83-9.84,6.4-8.74,3.45-18.74,5.15-27.85,2.14-1.81-.64-3.55-1.53-5.11-2.7-.4-.3-.56-.85-.34-1.3.29-.59,1.02-.75,1.52-.39,2.83,1.98,6.29,2.94,9.78,3.24,8.75.61,17.87-1.82,25.3-6.46,1.46-.95,2.79-2.05,3.75-3.25,1.57-1.85,4.32.42,2.78,2.32h0Z"/>
      </g>
      <g>
        <path class="cls-3" d="M80.36,89.02c-3.2,0-5.79,2.95-5.79,6.58s2.59,6.58,5.79,6.58,5.79-2.95,5.79-6.58-2.59-6.58-5.79-6.58ZM80.36,96.77c-1.32,0-2.38-1.47-2.38-3.29s1.06-3.29,2.38-3.29,2.38,1.47,2.38,3.29-1.07,3.29-2.38,3.29Z"/>
        <path class="cls-3" d="M86.29,110.3c-.69.22-1.4.37-2.1.44-.66.07-.81-.89-.17-1.06.16-.04.31-.09.47-.14,5.67-1.82,8.61-8.45,6.57-14.81-2.04-6.36-8.29-10.04-13.96-8.23-2.06.66-3.76,1.96-5,3.65-.38.52-1.19.03-.92-.55,1.31-2.84,3.58-5.05,6.54-6,6.25-2.01,13.23,2.35,15.59,9.72s-.78,14.98-7.03,16.98Z"/>
        <path class="cls-3" d="M67.32,75.95c8.31-6.07,18.67-6.03,26.61.65,1.8,1.57-.39,4.26-2.3,2.8-3.06-2.85-6.89-4.83-11.1-5.07-3.11-.2-6.33.49-9.19,1.78-.95.42-1.96.96-2.8,1.53-1.12.73-2.27-.85-1.23-1.69h0Z"/>
      </g>
      <path class="cls-3" d="M31.81,100.22c.64,3.4,3.7,5.73,6.85,5.19,3.15-.53,5.18-3.72,4.55-7.12-.64-3.4-3.71-5.72-6.85-5.19s-5.18,3.72-4.54,7.12ZM34.79,97.66c-.32-1.7.47-3.25,1.76-3.47s2.6.98,2.92,2.68-.47,3.26-1.76,3.47c-1.29.22-2.6-.98-2.92-2.68Z"/>
    </g>
    <path class="cls-3" d="M130.55,97.77c-.98-.56-2.01-.98-3.07-1.25.1-.38.19-.75.28-1.13.09-.38.18-.77.26-1.16,4.47-20.88-2.29-42.67-20.05-54.53l-5.37-3.58c-2.69-1.79-5.53-3.34-8.51-4.61l-24.57-9.22s0,0-.02,0c-.01,0-.04-.01-.07-.02-.02,0-.04-.01-.05-.02-1.32-.41-11.46-3.58-19.73-8.68-5.13-3.16-9.55-7.06-10.69-11.5-.13-.51-.22-1.02-.26-1.54-.03-.37-.4-.61-.75-.49-2.15.77-8.37,4.18-8.37,17.99,0,0-1.48-11.28-5.94-16.22-.19-.21-.52-.24-.74-.07-1.06.8-2.03,1.77-2.9,2.9-2.73,3.53-4.53,8.57-5.21,14.47-2.89-2.89-4.91-7.34-5.66-9.15-.15-.38-.65-.47-.93-.17-2.13,2.35-2.66,4.92-3.99,8.7-1.15-1.15-2.37-2.08-3.34-2.75-.44-.31-1.01.13-.85.64,1.13,3.65.66,10.72.52,12.57,0,.03,0,.05,0,.08,0,.12-.02.21-.02.27,0,.03,0,.05,0,.06,0,.02,0,.03,0,.03-.52,6.03.04,12.71,1.83,19.51,1.21,4.58,2.88,8.84,4.9,12.65,1.9,3.6,3.62,7.29,4.99,11.12,1.64,4.56,3.28,10.15,3.28,14.25.02,4.23.44,8.36,1.28,12.34-1.25-.11-2.52-.03-3.78.27-7.39,1.77-11.66,10.39-9.53,19.24,1.82,7.56,7.72,12.86,14.01,13.13h5.06c1.36,0,2.62.78,3.19,2.02,2.61,5.68,6.44,10.55,11.47,14.25,2.93,2.15,6.11,3.79,9.48,4.94v13.77c-3.33,1.99-5.25,4.36-5.25,6.9s1.93,4.91,5.25,6.9c1.38.83,3.01,1.59,4.85,2.27,5.89,2.19,13.89,3.54,22.69,3.54,7.73,0,14.84-1.04,20.44-2.77,2.96-.91,5.49-2.02,7.49-3.27,3.08-1.93,4.86-4.21,4.86-6.66s-1.78-4.72-4.86-6.66v-30.08c1.21-1.08,2.4-2.2,3.58-3.37.66-.66,1.57-1.03,2.51-1.03h9.62c5.99-.08,12.39-4.04,16.23-10.69,5.3-9.18,3.72-20.01-3.53-24.19ZM14.48,31.29c-2.77,0-5.32-6.81-6.64-11-.72-2.29-.58-4.79.48-6.94l.02-.03s.96,1.92,1.92,3.47c1.2,1.95,2.27,3.99,3.11,6.12,1.46,3.71,2.94,8.38,1.11,8.37ZM13.57,119.08c-3.2-.68-5.86-3.42-6.45-7.04-.76-4.63,2.15-8.95,6.49-9.66.01,0,.02,0,.03,0,1.2-.19,2.08,1.12,1.48,2.18-1.78,3.15-2.03,7.45-.34,11.5.14.32.28.63.43.94.76,1.51,0,2.44-1.65,2.09ZM126.01,100.08c.55.85,1.07,1.74,1.41,2.66.4,1.05.55,2.11.47,3.19-2.67.71-5.58,2.6-8.11,5.41-.37-1.81-1.45-3.47-3.03-4.49-1.33-.89-2.95-1.27-4.55-1.25.11-.13.17-.19.17-.19,3.69-4.27,8.97-6.29,13.63-5.33ZM109.95,71.35c-1.46-.09-2.97.05-4.09-.52-1.03-.76.76-1.54,1.45-1.72,2.39-.76,8.44-.23,10.07,2.26v.03c-.04,1.02-3.22.27-4.29.2-1.02-.13-2.11-.21-3.13-.25ZM122.06,65.53l-.03.02c-1.02.56-2.94.17-4.27-.03-2.39-.39-4.92-.81-7.36-1.01-2.02-.19-4.08-.05-5.68-.31-.84-.15-1.92-.27-2.5-.87-.87-1.36,5.39-1.22,6.43-1.36,3.71-.11,8.3-.09,11.69,1.26,1.56.69,2.57,1.62,1.72,2.29ZM112.77,50.36c1.69.11,4.88,1.49,1.85,2.64-.77.39-2.01.45-2.54,1.09-.13,1.11,5.03,1.81,6.45,2.44.44.15,2.63.89,1.6,1.34-2.84.43-8.16-.71-14.21-.86-2.08-.08-4.35-.2-6.29-.73l-.09-.02c-2.43-.64-4.83-2.12-1.2-3.2,3.42-1.16,9.74-3.19,14.42-2.7ZM104.1,43.87c.23.07.51.2.77.38.44.3.79.72.65,1.23-.12.42-.69.68-1.06.83-2.2.89-6.25.92-7.09,1.46-1.68.65-3.47,1.96-5.17,1.84-1.51-.52,1.02-2.69,1.72-3.09,1.26-.87,2.77-1.44,4.22-1.9,1.24-.4,2.5-.81,3.8-.92.72-.06,1.47-.04,2.16.18ZM96.15,37.83c.48-.07.96-.12,1.45-.15.53-.04,1.07-.03,1.59.12.27.08.54.2.79.35.24.14.46.33.64.53.94,1.07-3.55,1.44-4.97,1.96-1.42.39-2.56.81-3.76,1.37-1.8.82-3.77,2.18-5.49,3.7-1.57,1.32-3.75,3.31-5.47,3.57-1.58.12-.24-1.8.25-2.4,1.19-1.49,2.55-2.73,4.29-4.11,3.12-2.48,6.7-4.39,10.69-4.94ZM77.89,32.47c1.86-1.27,4.07-2.18,6.35-2.06,1.02.05,1.98.38,2.92.76.75.29,2.79.73,2.87,1.74.07.77-.48,1.51-1.16,1.81-4.37,1.92-8.24,5.52-11.07,8.73-1.15,1.3-2.8,2.24-4.53,2.42-1.3.14-3.48-.15-4.38-1.23-.3-.35.06-1,.24-1.32,2.18-4.06,4.91-8.21,8.77-10.86ZM50.37,22.06c.12-2.52,2.77-4.08,5.05-3,6.2,2.94,11.93,4.77,13.34,5.2l.11.04,3.5,1.31c2.5.94,3.11,4.22,1.08,5.96-3.59,3.08-6.92,7.67-8.73,10.35-.92,1.37-2.66,1.9-4.2,1.32-2.33-.89-5.63-2.55-7.88-5.33-2.41-2.97-2.52-10.6-2.26-15.85ZM32.11,12.44c.92-5.62,3.19-8.28,4.9-9.52.8,2.74,2.65,5.43,5.55,8.05,2.59,2.33,4.21,5.55,4.59,9.01,1.68,15.31-2.24,23.15-7.45,19.62-4.23-2.87-6.52-12.82-7.47-18.14-.53-2.98-.6-6.03-.12-9.01ZM18.47,25.18c-1.58-5.31-1.2-11.15,1.27-16.13.83-1.69,1.91-3.29,3.26-4.61,2.69,4.06,4.13,11.19,4.48,13.86,0,0,5.47,20.18,2.81,22.94-4.67,4.86-9.43-8.06-11.82-16.07ZM81.32,183.37c-2.27.22-4.65.34-7.1.34-9.16,0-17.34-1.63-22.69-4.19v-.79h29.79v4.65ZM81.32,176.37h-29.79v-5.41h29.79v5.41ZM81.32,168.62h-29.79v-5.41h29.79v5.41ZM81.32,160.86h-29.79v-5.04s12.78,5.07,29.79-.88v5.92ZM94.66,180.47c-2.18.83-4.69,1.53-7.45,2.06v-3.8h7.45v1.74ZM94.66,176.37h-7.45v-5.41h7.45v5.41ZM94.66,168.62h-7.45v-5.41h7.45v5.41ZM94.66,160.86h-7.45v-5.41h7.45v5.41ZM94.66,153.11h-7.45v-.63c2.43-1.18,4.92-2.59,7.45-4.29v4.92ZM94.66,136.13c-2.41,2.04-4.9,3.87-7.45,5.49-1.94,1.24-3.91,2.35-5.9,3.34-14.57,7.24-29.99,7.6-41.12-.57-10.18-7.48-14.06-20.61-13.49-32.78.03-.67.07-1.35.13-2.03,1.78,2.39,4.37,4.04,7.41,4.43.72.09,1.44.11,2.14.06.63-.05.61-.97-.02-1.02-.16-.01-.33-.03-.49-.05-5.9-.76-9.96-6.47-9.07-12.76.56-3.94,2.94-7.18,6.09-8.86,3.43-1.83,7.7-.49,9.65,2.88,1.79,3.09,2.33,6.4,2.5,8.3.05.52.72.71,1.02.28,1.24-1.72,1.92-3.79,1.92-5.89,0-.5-.04-1.01-.12-1.51-1.74-10.96-9.9-15.57-15.45-17.45l2.51-5.5c3.09-6.29,11.32-8.09,16.72-3.64.04.03.08.07.12.1.31.26.62.54.91.83,2.35-2.11,4.74-4.02,7.14-5.73,4.79-3.42,9.59-5.99,14.16-7.61,8.16-2.88,15.59-2.7,20.92,1.21,4.58,3.36,6.99,9.02,7.38,16.04.16,2.82-.01,5.86-.5,9.06,3.09,2.97,5.58,7.31,6.81,12.43.79,3.29.97,6.53.62,9.5-.49.68-.96,1.39-1.39,2.15-3.42,5.93-3.98,12.55-1.98,17.62-3.42,4.43-7.2,8.34-11.19,11.7ZM108.25,119.7s0-.03-.02-.04c-1.41-5.08.97-9.79,2.66-12.32,1.65.11,3.27.44,4.58,1.39,1.45,1.01,2.3,2.69,2.88,4.36-.15.2-.29.4-.44.6-1.56,2.22-2.67,4.54-3.32,6.75-2.99-1.25-5.31-.97-6.35-.74ZM133.36,118.73c-.62,2.37-2.28,4.46-4.04,6.11-1.74,1.63-3.82,2.92-6.11,3.63-.21.06-.42.12-.62.18-1.28.34-2.6.43-3.74-.37,0,0,0,0-.01,0-3.3-2.32-3.16-8.19.29-13.1,1.75-2.49,4.02-4.26,6.27-5.09,1.3-.49,2.8-.08,3.57,1.06,1,1.47.13,3.15.13,3.15-.17-.88-.57-1.54-1.2-1.87-1.75-.91-4.6,1.12-6.37,4.52-1.77,3.41-1.79,6.91-.03,7.82,1.75.9,4.6-1.12,6.37-4.53.37-.71.67-1.43.88-2.12.99-.11,3.8-.55,5-2.09-.02.87-.14,1.78-.39,2.71ZM133.46,106.59c-.99-.69-2.17-1.01-3.47-.98.04-.33.04-.66.02-.99-.08-1.29-.62-2.29-1.05-3.46,1.16.41,2.31,1.65,3.1,2.55.43.5.82,1.03,1.16,1.59.17.29.33.58.48.88.12.25.22.76.4.94-.2-.2-.42-.38-.64-.54Z"/>
  </g>
  <g>
    <g>
      <g id="Sloppy">
        <path class="cls-1" d="M259.57,40.48l-19.71,54.43h5.2c.73,0,1.48.12,2.2.38,3.34,1.22,5.06,4.91,3.85,8.25-.99,2.7-3.59,4.35-6.32,4.23h-13.86c-.81.04-1.64-.08-2.45-.38-3.34-1.21-5.06-4.91-3.85-8.25l22.85-63.07c1.21-3.34,4.91-5.06,8.25-3.84,3.34,1.21,5.06,4.91,3.84,8.25Z"/>
        <path class="cls-1" d="M337.42,92.03c-3.52,9.67-11.52,15.94-19.14,15.66h-10.2l4.65-12.76h5.68c3,0,6.11-2.49,7.49-6.3,1.67-4.58.2-9.3-3.26-10.56s-7.62,1.42-9.28,5.99l-22.22,61.04c-1.25,3.42-5.03,5.18-8.45,3.93-3.42-1.24-5.18-5.03-3.94-8.45l25.83-70.94c1.24-3.42,5.03-5.19,8.45-3.94,1.22.44,2.22,1.21,2.95,2.16,4.2-2.76,8.98-3.68,13.32-2.1,8.61,3.13,12.24,14.89,8.1,26.25Z"/>
        <path class="cls-1" d="M382.1,92.03c-3.52,9.67-11.52,15.94-19.14,15.66h-10.19l4.64-12.76h5.68c3,0,6.11-2.49,7.49-6.3,1.67-4.58.2-9.3-3.26-10.56-3.46-1.26-7.62,1.42-9.28,5.99l-22.22,61.04c-1.25,3.42-5.03,5.18-8.45,3.93-3.42-1.24-5.18-5.03-3.94-8.45l25.83-70.94c1.24-3.42,5.03-5.19,8.45-3.94,1.22.44,2.22,1.21,2.95,2.16,4.2-2.76,8.98-3.68,13.32-2.1,8.61,3.13,12.24,14.89,8.1,26.25Z"/>
        <path class="cls-1" d="M276.42,65.33c-11.62-2.05-22.72,5.72-24.77,17.34-2.05,11.63,5.71,22.73,17.35,24.78,11.63,2.05,22.72-5.72,24.77-17.35,2.04-11.63-5.72-22.72-17.35-24.77ZM272.71,94.99c-4.75,0-8.6-3.85-8.6-8.6s3.85-8.6,8.6-8.6,8.6,3.85,8.6,8.6-3.85,8.6-8.6,8.6Z"/>
        <g>
          <path class="cls-1" d="M199.74,131.89c-15.18,5.52-31.95-2.3-37.47-17.47-5.53-15.17,2.3-31.95,17.47-37.47,3.3-1.2,6.68-1.77,10-1.77s6.06,2.72,6.06,6.07-2.54,5.9-5.75,6.05c-.19,0-.38,0-.57.01-1.86.02-3.75.36-5.59,1.03-8.88,3.23-13.46,13.05-10.23,21.93,3.23,8.88,13.05,13.46,21.93,10.23,8.88-3.24,13.46-13.05,10.22-21.93l-8.1-22.27-1.25-3.43h12.91l7.84,21.55c5.52,15.17-2.3,31.95-17.47,37.47Z"/>
          <path class="cls-1" d="M236.78,50.83c0,2.41-.45,4.72-1.28,6.85-2.74,7.1-9.62,12.13-17.69,12.13h-51.23c-3.35,0-6.07-2.72-6.07-6.07s2.72-6.06,6.07-6.06h50.92c3.55,0,6.44-2.88,6.44-6.44s-2.89-6.43-6.44-6.43c-9.35,0-12.3,6.04-13.22,9.85h-13.21c2-22.78,26.66-22.8,26.74-22.8,10.48,0,18.97,8.49,18.97,18.97Z"/>
        </g>
        <path class="cls-1" d="M433.52,73.88l-24.37,67.29c-4.16,11.43-16.81,17.33-28.24,13.16-11.76-4.28-17.66-17.53-12.79-29.21,1.73-4.14,4.64-7.52,8.21-9.86,4.72-3.09,10.51-3.32,16.08-3.32h10l-4.68,12.86h-9.27c-3.62-.01-7,2.22-8.31,5.8-1.66,4.58.7,9.66,5.28,11.33,4.34,1.57,9.08-.44,11.01-4.53l.02-.05,10.75-29.51h-13.35c-1.27-.03-2.5-.35-3.66-.87-5.44-2.44-7.86-9.18-5.82-14.79l8.59-22.82c.17-.47.39-.91.66-1.31,1.62-2.55,4.86-3.72,7.82-2.64.26.09.5.21.74.33,2.49,1.25,3.88,3.94,3.55,6.66-.05.5-.16,1-.35,1.49l-4.88,12.64c-1.6,4.4,1.7,8.1,5.46,8.48.39.04.8.04,1.2,0h4.51l4.02-11.37,5.41-14.26c1.24-3.43,5.04-5.21,8.48-3.96,3.43,1.24,5.2,5.04,3.94,8.48Z"/>
      </g>
      <polygon class="cls-1" points="425.46 55.53 423.32 61.4 262.27 61.4 264.41 55.53 425.46 55.53"/>
      <g id="Ko.">
        <path class="cls-1" d="M528.13,65.43c-11.59-2.04-22.66,5.7-24.7,17.29-2.04,11.6,5.69,22.67,17.3,24.71,11.6,2.04,22.66-5.7,24.7-17.3,2.03-11.6-5.7-22.66-17.3-24.7ZM524.43,95.01c-4.74,0-8.58-3.84-8.58-8.58s3.84-8.58,8.58-8.58,8.58,3.84,8.58,8.58-3.84,8.58-8.58,8.58Z"/>
        <circle class="cls-1" cx="551.95" cy="101.89" r="5.87"/>
        <path class="cls-1" d="M520.6,42.9l-28.59,28.88,10.18,27.26c1.22,3.37-.51,7.09-3.88,8.32-3.37,1.22-7.09-.51-8.32-3.88l-12.08-32.53-11.84,32.53c-1.23,3.37-4.96,5.1-8.31,3.88-3.37-1.23-5.11-4.95-3.88-8.31l14.14-38.54c.44-1.22.67-2.54.67-3.92,0-6.48-5.26-11.74-11.74-11.74s-11.74,5.26-11.74,11.74c0,5.21,3.38,9.61,8.06,11.15.07.02.14.04.21.07,3.29,1.03,5.19,4.49,4.26,7.83-.95,3.41-4.49,5.46-7.9,4.51h0c-10.17-3.03-17.6-12.46-17.6-23.63,0-13.62,11.04-24.65,24.65-24.65,3.69,0,7.18.81,10.33,2.27,3.14,1.45,5.92,3.55,8.17,6.12.02.02.03.04.05.06.88,1,1.67,2.07,2.37,3.21.04.05.07.11.11.17,3.05,4.94,4.18,10.86,3.35,16.59-.23,1.59-.64,3.19-1.21,4.76l31.32-31.24c2.52-2.55,6.61-2.57,9.16-.05,2.54,2.52,2.57,6.62.05,9.16Z"/>
      </g>
    </g>
    <g>
      <polygon class="cls-2" points="639.37 224.09 637.23 229.96 505.89 229.96 508.03 224.09 639.37 224.09"/>
      <g id="Studio">
        <path class="cls-2" d="M633.06,192.9c-7.6-1.34-14.86,3.74-16.2,11.34-1.34,7.61,3.73,14.87,11.35,16.21,7.61,1.34,14.86-3.74,16.2-11.35,1.33-7.61-3.74-14.86-11.35-16.2ZM630.64,212.3c-3.11,0-5.62-2.52-5.62-5.62s2.52-5.62,5.62-5.62,5.62,2.52,5.62,5.62-2.52,5.62-5.62,5.62Z"/>
        <g>
          <path class="cls-2" d="M491.39,236.43c-9.93,3.62-20.88-1.51-24.5-11.42-3.62-9.93,1.51-20.9,11.43-24.5,2.15-.78,4.36-1.17,6.53-1.17s3.96,1.78,3.96,3.97-1.65,3.86-3.75,3.96c-.13,0-.26,0-.38.02-1.22,0-2.45.22-3.65.67-5.81,2.11-8.81,8.54-6.69,14.33,2.11,5.81,8.54,8.81,14.35,6.69,5.81-2.11,8.81-8.54,6.68-14.35l-5.3-14.56-.94-2.61h8.44l5.27,14.46c3.6,9.93-1.51,20.9-11.43,24.5Z"/>
          <path class="cls-2" d="M515.62,183.42c0,1.57-.29,3.09-.83,4.48-1.79,4.63-6.29,7.93-11.58,7.93h-33.5c-2.19,0-3.97-1.78-3.97-3.97s1.78-3.96,3.97-3.96h33.31c2.32,0,4.21-1.89,4.21-4.21s-1.89-4.21-4.21-4.21c-6.45,0-8.25,4.39-8.74,6.82h-8.58c1.07-15.28,17.47-15.29,17.52-15.29,6.85,0,12.41,5.56,12.41,12.41Z"/>
        </g>
        <path class="cls-2" d="M584.62,206.93c.35-1.47.26-3.14-.58-4.44-.75-1.2-2.13-1.86-3.56-1.67-3.3.46-5.2,5.32-4.6,8.25.35,1.76,1.79,3.14,3.65,3.12l14.22-.02c2.13.22,3.8,2.03,3.8,4.23,0,2.34-1.89,4.23-4.23,4.23l-16.43-.02c-1.15.08-2.29-.08-3.39-.48-5.64-2.03-7.99-9.74-5.28-17.17,2.26-6.2,7.32-10.26,12.2-10.26.96,0,1.94.16,2.87.51,2.08.75,3.72,2.29,4.82,4.29l3.11-8.49,5.56-15.25c.8-2.19,3.25-3.33,5.44-2.53,2.21.8,3.33,3.23,2.55,5.44l-12.41,33.89h-9.02l1.28-3.65Z"/>
        <path class="cls-2" d="M535.32,196.94c0,2.34-1.9,4.24-4.24,4.24h-5.64l-4,10.99h3.26c2.35,0,4.24,1.9,4.24,4.24s-1.9,4.24-4.24,4.24h-9.33c-.48,0-.97-.08-1.45-.26-2.2-.8-3.34-3.24-2.54-5.44l5.02-13.78h-1.03c-2.34,0-4.24-1.9-4.24-4.24s1.9-4.24,4.24-4.24h4.11l2.07-5.69c.8-2.2,3.24-3.34,5.44-2.54,2.2.8,3.34,3.24,2.54,5.44l-1.01,2.79h2.56c2.34,0,4.24,1.9,4.24,4.24Z"/>
        <g>
          <path class="cls-2" d="M617.23,216.41c0,2.34-1.9,4.24-4.24,4.24h-9.33c-.48,0-.97-.08-1.45-.26-2.2-.8-3.34-3.24-2.54-5.44l7.1-19.5c.8-2.2,3.24-3.34,5.44-2.54,2.2.8,3.34,3.24,2.54,5.44l-5.02,13.8h3.27c2.34,0,4.24,1.9,4.24,4.24Z"/>
          <circle class="cls-2" cx="613.79" cy="186.66" r="4.25"/>
        </g>
        <path class="cls-2" d="M565.82,216.06c0,2.15-1.75,3.89-3.89,3.89h-23.03c-.8-.02-1.59-.22-2.32-.56-3.46-1.55-5-5.85-3.72-9.42l5.48-14.52c.11-.29.24-.58.42-.83,1.04-1.62,3.09-2.37,4.98-1.68.16.06.32.13.46.21,1.59.8,2.48,2.51,2.27,4.24-.05.32-.11.62-.22.94l-3.11,8.04c-1.17,3.35.98,5.8,3.41,5.85h3.35l6.36-16.77c.78-2.18,3.2-3.31,5.4-2.51,2.18.78,3.3,3.22,2.51,5.4l-5.14,13.84h2.9c2.15,0,3.89,1.75,3.89,3.89Z"/>
      </g>
      <g>
        <path class="cls-2" d="M588.32,145.11c0,2.38-1.93,4.32-4.32,4.32h-5.75l-4.08,11.19h3.32c2.39,0,4.32,1.94,4.32,4.32s-1.93,4.32-4.32,4.32h-9.5c-.49,0-.99-.08-1.48-.26-2.24-.81-3.4-3.3-2.58-5.54l5.11-14.03h-1.05c-2.38,0-4.32-1.94-4.32-4.32s1.93-4.32,4.32-4.32h4.19l2.11-5.8c.81-2.24,3.3-3.4,5.54-2.58,2.24.81,3.4,3.3,2.58,5.54l-1.03,2.84h2.6c2.38,0,4.32,1.94,4.32,4.32Z"/>
        <g>
          <path class="cls-2" d="M602.23,164.95c0,2.38-1.94,4.32-4.32,4.32h-9.51c-.49,0-.99-.08-1.48-.26-2.24-.81-3.4-3.3-2.58-5.54l7.23-19.86c.82-2.24,3.3-3.4,5.54-2.58,2.24.82,3.4,3.3,2.58,5.54l-5.12,14.05h3.33c2.38,0,4.32,1.94,4.32,4.32Z"/>
          <circle class="cls-2" cx="598.72" cy="134.64" r="4.32"/>
        </g>
        <path class="cls-2" d="M631.42,148.66c1.69-1.69,1.69-4.42,0-6.11-1.69-1.69-4.43-1.69-6.11,0l-9.72,9.68,1.12-6.36c.41-2.35-1.16-4.6-3.51-5.01-2.35-.41-4.6,1.15-5.01,3.51l-3.5,19.84c-.41,2.35,1.15,4.59,3.51,5.01,1.45.25,2.84-.24,3.8-1.21l19.42-19.35Z"/>
        <path class="cls-2" d="M493.84,169.27c2.38,0,4.32-1.93,4.32-4.32,0-1.07-.39-2.05-1.04-2.8-.79-.93-1.96-1.51-3.28-1.51h-2.7c-.51-.01-1.03-.14-1.53-.33-2.96-1.07-4.21-5.13-2.78-9.05.24-.66.54-1.27.89-1.83h6.11c1.29,0,2.44-.57,3.24-1.47.59-.67.97-1.52,1.06-2.46.01-.13.02-.27.02-.4,0-2.38-1.93-4.32-4.32-4.32h-14.85c0-1.77-1.09-3.42-2.84-4.06-2.24-.81-4.72.34-5.54,2.58l-4.27,11.74c-.82,2.24.34,4.73,2.58,5.54,2.24.82,4.72-.34,5.54-2.58l1.67-4.58h2.65c-.29.59-.55,1.2-.78,1.83-2.76,7.57-.35,15.4,5.38,17.48.95.35,1.94.53,2.93.53h7.54Z"/>
        <path class="cls-2" d="M527.39,164.96c0,2.38-1.94,4.32-4.32,4.32l-14.39-.02c-1.01,0-2.02-.16-2.98-.52-5.72-2.07-8.12-9.9-5.37-17.47,2.3-6.33,7.45-10.47,12.41-10.47h4.65c4.76,0,8.64,3.87,8.64,8.64,0,3.25-1.78,6.07-4.42,7.55-1.26.7-2.69,1.09-4.22,1.09h-6.43c-.73-.65-1.21-1.84-1.21-3.9,0-.8.24-1.76.72-2.61h4.76c1.17,0,2.15-.96,2.15-2.14s-.98-2.14-2.15-2.14c-2.74,0-4.21.93-4.99,1.92,0,0-.02-.02-.02.02-1.39,1.3-2.1,3.31-2.1,4.94,0,4.16,1.81,6.31,5.38,6.36.05.02.11.02.18.02.39.03.8.05,1.26.05h8.12c2.38,0,4.32,1.94,4.32,4.34Z"/>
        <path class="cls-2" d="M561.27,164.94c0,2.38-1.92,4.31-4.31,4.31l-18.54-.02c-1.17.08-2.35-.08-3.47-.49-5.72-2.07-8.14-9.92-5.38-17.48,2.3-6.31,7.45-10.45,12.43-10.45,1,0,1.97.16,2.94.52,2.12.77,3.78,2.33,4.89,4.37l.82-2.22c.88-2.12,3.28-3.21,5.46-2.41,2.23.82,3.39,3.29,2.58,5.53l-4.5,12.38h-9.2l1.19-3.25c.42-1.6.36-3.36-.47-4.78-.47-.83-1.21-1.47-2.12-1.73-1.47-.42-2.98.26-4.06,1.27-1.68,1.61-2.54,4.19-2.15,6.52.18.98.59,1.94,1.3,2.64.65.62,1.52.98,2.41.96h15.89c2.38,0,4.31,1.94,4.31,4.32Z"/>
        <g>
          <path class="cls-2" d="M471.68,173.75c-1.33.76-2.88.6-4.35.6h-17.07c-3.9.03-7.87-.74-11.41-2.52-3.02-1.5-5.66-3.71-7.7-6.4-1.92-2.54-3.26-5.47-4.06-8.56-.83-3.21-1.04-6.58-.78-9.89.14-1.78.43-3.54.83-5.26.21-.88.45-1.76.72-2.62.09-.26.16-.5.26-.76h8.98c-.93,2.4-1.52,4.94-1.69,7.49-.35,4.87.86,9.93,4.07,13.69,3.26,3.83,8.16,5.76,13.12,5.71h16.78c2.11-.03,4.04,1.55,4.47,3.62.41,1.92-.48,3.92-2.17,4.9Z"/>
          <path class="cls-2" d="M474.46,132.34c-2.5,2.71-6.11,4.28-9.8,4.28l-39.98-.02c-2.35,0-4.26-1.9-4.26-4.25s1.92-4.25,4.26-4.25l39.63.03c2.52,0,4.57-2.04,4.57-4.57,0-2.02-1.33-3.75-3.14-4.35-.91-.29-1.88-.22-2.81-.22-5.95-.05-12.43,2.52-17.74,7.42h-10.82c.07-.07.12-.16.17-.22.5-.67,1.04-1.31,1.57-1.95,1-1.21,2.07-2.35,3.19-3.42,5.95-5.71,13.67-9.91,21.96-10.81,1.38-.14,2.8-.22,4.19-.14,2.49.16,4.92.98,6.96,2.43,2.88,2.05,4.89,5.23,5.45,8.73.67,4.06-.6,8.27-3.4,11.29Z"/>
        </g>
        <path class="cls-2" d="M660.89,164.96c0,2.38-1.94,4.32-4.32,4.32l-14.4-.02c-1.01,0-2.01-.16-2.97-.52-5.72-2.07-8.12-9.9-5.37-17.47,2.3-6.33,7.45-10.47,12.41-10.47h4.63c4.78,0,8.64,3.87,8.64,8.64,0,3.25-1.78,6.07-4.42,7.55-1.24.7-2.67,1.09-4.22,1.09h-6.41c-.83-.75-1.21-2.02-1.21-3.9,0-.8.24-1.76.72-2.61h4.76c1.17,0,2.14-.96,2.14-2.14s-.96-2.14-2.14-2.14c-2.67,0-4.13.86-4.91,1.83-.03.02-.07.05-.1.11-1.39,1.29-2.1,3.31-2.1,4.94,0,5.27,3.02,6.38,5.56,6.38.38.03.8.05,1.24.05h8.14c2.38,0,4.32,1.94,4.32,4.34Z"/>
      </g>
    </g>
  </g>
</svg>